<?xml version="1.0" encoding="utf-8"?>
<!-- Generator: Adobe Illustrator 21.0.0, SVG Export Plug-In . SVG Version: 6.00 Build 0)  -->
<svg version="1.1" id="Layer_1" xmlns="http://www.w3.org/2000/svg" xmlns:xlink="http://www.w3.org/1999/xlink" x="0px" y="0px"
	 viewBox="0 0 716.3 1023.5" style="enable-background:new 0 0 716.3 1023.5;" xml:space="preserve">
<style type="text/css">
	.st0{fill:#FFFFFF;stroke:#000000;stroke-linecap:round;stroke-linejoin:round;stroke-miterlimit:10;}
	.st1{fill:#FFFFFF;stroke:#000000;stroke-miterlimit:10;}
	.st2{fill-rule:evenodd;clip-rule:evenodd;fill:#FFFFFF;stroke:#000000;stroke-miterlimit:10;}
	.st3{fill:#FFFFFF;}
	.st4{clip-path:url(#SVGID_2_);}
</style>
<g>
	<g>
		<g>
			<path class="st0" d="M671,338.4c-4.6,4.3-7.9,11-4,15.9c2.5,3.2,6.8,4.7,10.9,5c2.1,0.2,4.2,0,6.1-0.7c6.4-2.5,8-11.8,3.9-17.3
				C688,341.3,677.9,332,671,338.4z"/>
			<path class="st0" d="M690.1,351.2c1.7-13.7,4.2-27.4,7.4-40.8c1.9-7.9,4.7-16.5,11.8-20.4"/>
		</g>
		<g>
			<path class="st0" d="M619.5,324.2c-4.6,4.3-7.9,11-4,15.9c2.5,3.2,6.8,4.7,10.9,5c2.1,0.2,4.2,0,6.1-0.7c6.4-2.5,8-11.8,3.9-17.3
				C636.5,327.2,626.4,317.9,619.5,324.2z"/>
			<path class="st0" d="M638.6,337c1.7-13.7,4.2-27.4,7.4-40.8c1.9-7.9,4.7-16.5,11.8-20.4"/>
		</g>
		<path class="st0" d="M648.7,274c27.5,5.3,37.7,7.8,65.1,13.1"/>
	</g>
	<g>
		<g>
			<g>
				<path class="st0" d="M207.7,660.2c-16.8-54.5,3.2-114.9-12-169.8c-10.8-39.1-40-72.7-77.2-88.9s-81.7-14.6-117.6,4.2
					c39.8,19.9,65.2,65.4,61.3,109.7c-3.4,38.4-26.2,72.6-31.9,110.8C22.3,679.2,50.4,734,94,765.3c43.6,31.3,100.2,41.1,153.5,34.7
					c35.1-4.2,95.9-15,119.8-41.1c-13.9-17.8-68.8-11.5-92.4-23.2C243.9,720.4,218,693.6,207.7,660.2z"/>
				<path class="st0" d="M147.4,664.1c-7.9-11.3-11.8-25-14.8-38.5c-8.5-38.9-10.5-79.2-5.7-118.8c3.9-32.8,12-68.1-3.4-97.4
					c-1.4-2.7-3.1-5.3-4.8-7.8c15.8,6.9,30.1,17,42.2,29.3c3.8,16.7,4,34.6,2.8,51.8c-1.9,29.3-6.9,59-0.9,87.7
					c5.7,26.9,20.5,50,40.1,69.3c1.1,6.9,2.6,13.8,4.7,20.6c7.8,25.4,24.6,46.9,45.8,62.5c-26.5-6.8-52-17.5-75.3-31.9
					C166.6,683.6,155.2,675.3,147.4,664.1z"/>
				<path class="st0" d="M181.7,775.6c40.6,12.7,83.4,15.1,126,13.1c-21.4,5.8-43.7,9.3-60.3,11.3c-53.3,6.4-109.9-3.4-153.5-34.7
					C50.4,734,22.3,679.2,30.2,626.1c2-13.1,6-25.8,10.5-38.3c3.9,28.8,7.1,57.8,18.2,84.4C80.2,723.2,129,759.1,181.7,775.6z"/>
				<path class="st0" d="M0.9,405.6c11.1-5.8,23-9.9,35.3-12.4c13.3,6.1,25,16.3,33.3,28.4C84,443.1,89,469.8,89.8,495.7
					c0.8,26-2.4,51.9-2.7,77.8c-0.5,36.9,5.3,75,24.7,106.3c25.9,41.8,73.2,66.7,121.5,76.3c43.8,8.7,88.9,6.5,133.6,3.2
					c-12.7,13.5-35.3,22.9-59,29.3c-42.6,2.1-85.5-0.4-126-13.1C129,759.1,80.2,723.2,58.9,672.2c-11.1-26.6-14.2-55.6-18.2-84.4
					c8.6-23.9,19.2-47.3,21.4-72.4C66.1,471,40.7,425.5,0.9,405.6z"/>
				<path class="st1" d="M233.2,756.1c-48.2-9.6-95.6-34.5-121.5-76.3C92.3,648.5,86.6,610.4,87,573.5c0.3-26,3.5-51.9,2.7-77.8
					c-0.8-25.9-5.8-52.6-20.3-74.1c-8.2-12.2-20-22.4-33.3-28.4c27.4-5.6,56.6-2.9,82.3,8.3c0.1,0,0.1,0.1,0.2,0.1
					c1.8,2.5,3.4,5.1,4.8,7.8c15.4,29.3,7.3,64.6,3.4,97.4c-4.7,39.5-2.8,79.9,5.7,118.8c3,13.5,6.8,27.1,14.8,38.5
					c7.8,11.2,19.2,19.5,30.9,26.7c23.3,14.4,48.8,25.1,75.3,31.9c6.7,5,13.9,9.4,21.4,13.1c23.6,11.7,78.5,5.3,92.4,23.2
					c-0.2,0.2-0.3,0.3-0.5,0.5C322.1,762.6,277,764.9,233.2,756.1z"/>
			</g>
			<g>
				<g>
					<g>
						<g>
							<g>
								<path class="st0" d="M231.9,697.5c4,90.8,7.7,291.1,11.8,303.6c9.5,28.5,84.9,27.6,103.7,4.1c5-6.2,0.2-203.4,7.3-290"/>
								<path class="st0" d="M349.7,965.8c-0.4,22.8-1,37.7-2.3,39.4c-18.7,23.4-94.2,24.3-103.7-4.1c-0.9-2.7-1.8-14.2-2.7-31.6
									C277,975.1,314.1,973.8,349.7,965.8z"/>
							</g>
							<g>
								<path class="st0" d="M524.7,697.5c-4,90.8-7.7,291.1-11.8,303.6c-9.5,28.5-84.9,27.6-103.7,4.1c-5-6.2-0.2-203.4-7.3-290"/>
								<path class="st0" d="M406.9,965.8c0.4,22.8,1,37.7,2.3,39.4c18.7,23.4,94.2,24.3,103.7-4.1c0.9-2.7,1.8-14.2,2.7-31.6
									C479.6,975.1,442.5,973.8,406.9,965.8z"/>
							</g>
						</g>
						<g>
							<g>
								<path class="st0" d="M221.6,668.9c-76.3-49.4-38.2-23.6-114.5-73c-9.7-7.3-15.3-17-18.5-26.7c-9.3-28.5,7.9-59.7,37.6-64.1
									c7.9-1.1,16.5-0.5,25.5,3.3c75.7,42.8,37.1,21.8,127.8,70.6"/>
								<path class="st0" d="M151.8,508.4c-9-3.8-17.7-4.4-25.5-3.3c-29.7,4.3-46.9,35.5-37.6,64.1c3.2,9.8,8.8,19.4,18.5,26.8
									c3.2,2,6.4,4.1,9.6,6.2c21.1-25.5,38.9-53.7,52.7-83.8C163.5,515,157.6,511.7,151.8,508.4z"/>
							</g>
							<g>
								<path class="st0" d="M524.6,675.3c72.9-54.3,36.5-26.1,109.5-80.4c9.2-7.9,14.1-18,16.7-27.9c7.4-29.1-11.9-59.1-41.8-61.4
									c-7.9-0.6-16.5,0.6-25.3,5c-72.7,47.7-35.6,24.2-122.9,78.8"/>
								<path class="st0" d="M583.7,510.6c8.7-4.4,17.3-5.6,25.2-5c29.9,2.3,49.2,32.4,41.8,61.4c-2.6,9.9-7.5,20-16.7,27.9
									c-3,2.2-6.1,4.5-9.1,6.8c-22.7-24.1-42.3-51.1-58.1-80.2C572.5,517.9,578.1,514.3,583.7,510.6z"/>
							</g>
						</g>
					</g>
					<path class="st0" d="M228.2,479.7c-11.1,53-22.2,106-33.3,158.9c-9.6,46-18.9,95.5-0.1,138.6c16.5,37.8,53,64.3,92.3,77
						c39.3,12.8,81.4,13.4,122.7,11.5c43.7-2,91.4-8.6,121-40.8c34.6-37.5,31.9-95.1,25.5-145.7c-9.2-71.7-21.7-142.9-37.7-213.4
						L228.2,479.7z"/>
				</g>
				<g>
					<g>
						<g>
							<path class="st0" d="M524.5,240.1c19.1-22.3,29.7-50.8,29.4-79.4c-0.2-18.2-4.8-36.4-13.2-52.8c-6.9-13.5-26.8-14.9-35.8-2.5
								c-21.5,29.6-40.3,61-56.1,93.6L524.5,240.1z"/>
							<path class="st0" d="M474.8,198.9c8.9-16.5,18.5-32.6,28.7-48.4c5.6-8.6,18.8-5.5,20.2,4.7c0.6,4.3,1,8.7,1,13
								c0.2,17.4-4.4,35.1-12.8,50.9L474.8,198.9z"/>
							<path class="st0" d="M223.2,240.1c-19.1-22.3-29.7-50.8-29.4-79.4c0.2-18.2,4.8-36.4,13.2-52.8c6.9-13.5,26.8-14.9,35.8-2.5
								c22.7,31.2,40.9,62.1,56.1,93.6L223.2,240.1z"/>
							<path class="st0" d="M232.6,219c-8.5-15.8-13-33.5-12.8-50.9c0-4.3,0.4-8.7,1-13c1.5-10.2,14.7-13.2,20.3-4.5
								c10.3,15.7,19.8,31.8,28.7,48.3L232.6,219z"/>
						</g>
						<path class="st0" d="M176.6,378.7c29.3-187.5,87.6-233.2,195.7-233.2c108.1,0,159.8,42.4,195.7,233.2
							c22,117-87.6,184.2-195.7,184.2C264.2,562.9,158.2,496.3,176.6,378.7z"/>
						<g>
							<path class="st2" d="M523.6,417.5c0.1,8.3-10.6,15.3-23.9,15.5c-13.4,0.2-24.3-6.3-24.5-14.6c-0.2-8.3,10.6-15.3,23.9-15.5
								C512.5,402.6,523.5,409.2,523.6,417.5z"/>
							<g>
								<path class="st3" d="M483.3,363.3c-17.2,9.8-27.7,17.6-36.8,28.2c14.6,0.8,29.1,2.9,43.3,6.3"/>
								<g>
									<path d="M482.5,362c-13.7,7.8-26.7,16.5-37.1,28.4c-0.9,1-0.3,2.5,1.1,2.6c14.5,0.8,28.8,2.9,42.9,6.3
										c1.9,0.4,2.7-2.4,0.8-2.9c-14.4-3.4-29-5.5-43.7-6.4c0.4,0.9,0.7,1.7,1.1,2.6c10.3-11.7,23-20.2,36.5-27.9
										C485.7,363.6,484.2,361.1,482.5,362L482.5,362z"/>
								</g>
							</g>
							<path class="st2" d="M271.8,420.9c-0.5,8.2-11.7,14.2-24.9,13.3c-13.2-0.9-23.5-8.2-22.9-16.4c0.5-8.2,11.7-14.2,24.9-13.3
								C262,405.3,272.3,412.7,271.8,420.9z"/>
							<g>
								<path class="st1" d="M273.6,363.1c-0.5,0-1,0.1-1.4,0.1c-6.9,0.6-13.9,4.2-18.3,9.6c-4.2,5.1-7.1,13-6.2,19.7
									c0.9,6.9,3.9,13.9,9.6,18.3c5.7,4.4,12.4,6.8,19.7,6.2c0.5,0,1-0.1,1.4-0.1c6.9-0.6,13.9-4.2,18.3-9.6
									c4.2-5.1,7.1-13,6.2-19.7c-0.9-6.9-3.9-13.9-9.6-18.3C287.6,365,280.9,362.5,273.6,363.1L273.6,363.1z"/>
							</g>
						</g>
						<g>
							<circle class="st1" cx="336.4" cy="494.4" r="6.5"/>
							<circle class="st1" cx="411.4" cy="494.4" r="6.5"/>
						</g>
						<g>
							<path class="st0" d="M503.5,203.4C503.5,203.4,503.5,203.4,503.5,203.4c-2.6,12.4-6.2,22.8-8.8,28.8
								c-11.2,24.8-31.6,44.6-55.2,50.5v0.1c-1,0.2-2,0.5-3,0.7c2.1-5,4-10.1,5.7-15.3c1.4-4.5,2.7-9,3.9-13.6
								c4-16.4,6.1-33.4,5.9-50.5c-0.1-15.3-2-30.5-1.9-45.8c0-3.1,0.1-6.2,0.5-9.2c3.9,0.9,7.6,1.9,11.1,3.2
								c12.3,4.3,22.1,10.6,29.6,19.4C498.8,180.5,502.4,192.1,503.5,203.4z"/>
							<path class="st1" d="M349.4,235.3c-0.8,2.3-1.7,4.3-2.4,6c-11.1,24.5-30.1,44.7-52.6,53.7c-0.8,0.3-1.6,0.6-2.5,0.9
								c-0.8,0.3-1.7,0.6-2.5,0.9c-2.6,0.8-5.2,1.4-7.8,2c7.9-18.8,13.2-39.1,15.7-59.9c1.2-9.7,1.7-19.5,1.6-29.2
								c-0.1-17.2-2.2-34.3-2.1-51.5c0-2.6,0.1-5.3,0.3-8c3.9-0.8,8.1-1.5,13-2.1c10.1-1.2,22.6-2,38.4-2.7c2.6-0.1,5.4-0.2,8.2-0.4
								c1.1,2.7,1.9,5.7,2.5,8.7C364.3,183.8,356,217.7,349.4,235.3z"/>
							<path class="st0" d="M300.6,232.1c-1,2.3-2.2,4.6-3.4,6.8c-12.2,22.6-32.1,39.9-54.8,44.5c10.3-24.6,15.6-52.1,15.4-79.4
								c0-7.5-0.5-14.9-1-22.4c1.3-3.8,3.1-7.2,5.4-10.1c9.4-11.7,18.3-17.7,34.9-21.3c3.9-0.8,8.1-1.5,13-2.1
								c0.6,1.9,1.1,3.9,1.4,6C316.7,184.3,306.5,219,300.6,232.1z"/>
							<path class="st0" d="M450.7,245.2c-1.4,3.2-3,6.3-4.7,9.3c-13.8,24.6-35.8,43.3-60.7,48.3c0.1-0.3,0.3-0.7,0.4-1
								c0.1-0.1,0.1-0.2,0.2-0.3c4.4-10.8,16.9-72.1,16.7-87.7c-0.1-17.2-2.2-34.3-2.1-51.5c0-6.1,0.4-12.5,2.1-18.2
								c4,0,7.8,0.1,11.6,0.3h0c13.6,0.6,25.7,2.1,36.2,4.7c3.9,0.9,7.6,1.9,11.1,3.2c0.5,1.7,1,3.6,1.3,5.5
								C468.7,191.6,457.3,230.4,450.7,245.2z"/>
							<path class="st0" d="M403.2,250.2c-1.5,3.4-5.1,9.9-5.1,9.9c0.1,0,0.1,0.1,0,0.1c-9.6,17.2-22.8,31.9-38.3,41.7
								c-0.1,0.1-0.2,0.1-0.3,0.1c-8.9,5.7-18.6,9.8-28.7,11.8c0.1-0.3,0.3-0.7,0.4-1.1c10-24.3,16.2-50.6,18.1-77.4
								c0.5-6.7,0.7-13.4,0.6-20.1c-0.1-19-2.4-38-2.3-57c0-4.2,0.1-8.6,0.8-12.9c2.6-0.1,5.4-0.2,8.2-0.4
								c5.2-0.2,10.7-0.4,16.5-0.6c10.4-0.4,20.2-0.6,29.4-0.4c4,0,7.8,0.1,11.6,0.3h0c1.1,2.8,1.9,5.9,2.4,9
								C423.1,190.9,410.6,233.9,403.2,250.2z"/>
						</g>
						<g>
							<path class="st0" d="M380.8,6.6l25.8,173.5c0.7,4.4-2.1,8.6-6.4,9.8l-0.1,0c-18.5,5-38,5-56.4,0l0,0
								c-4.3-1.2-7.1-5.5-6.3-9.9L366.2,6.6C367.6-1.6,379.4-1.6,380.8,6.6z"/>
							<path class="st1" d="M343.7,189.9c7.6,2.1,15.4,3.3,23.3,3.6l36.3-36.3l-5.3-35.6l-60.6,60.6
								C337.6,185.8,340.1,188.9,343.7,189.9z"/>
							<path class="st1" d="M380.8,6.6c-1.4-8.2-13.2-8.2-14.6,0l-4.8,28.8L382,14.8L380.8,6.6z"/>
							<polygon class="st1" points="345.1,133.6 392.6,86 387.3,50.4 353.2,84.5 							"/>
						</g>
					</g>
				</g>
			</g>
		</g>
		<g>
			<g>
				
					<ellipse transform="matrix(0.9756 -0.2194 0.2194 0.9756 -86.2737 151.7432)" class="st1" cx="640.1" cy="464.3" rx="47.2" ry="47.2"/>
				<g>
					<defs>
						
							<ellipse id="SVGID_1_" transform="matrix(0.9756 -0.2194 0.2194 0.9756 -86.284 151.7513)" cx="640.1" cy="464.4" rx="42.2" ry="42.2"/>
					</defs>
					<use xlink:href="#SVGID_1_"  style="overflow:visible;fill:#FFFFFF;"/>
					<clipPath id="SVGID_2_">
						<use xlink:href="#SVGID_1_"  style="overflow:visible;"/>
					</clipPath>
					<g class="st4">
						<path class="st0" d="M584.5,491.2c24.7-36,67.4-58.8,111-59.3c-0.7,0.2-1.3,0.3-2,0.5"/>
						<path class="st0" d="M594.6,509.3c24.7-36,67.4-58.8,111-59.3c-0.7,0.2-1.3,0.3-2,0.5"/>
						<path class="st0" d="M605.1,527.3c24.7-36,67.4-58.8,111-59.3c-0.7,0.2-1.3,0.3-2,0.5"/>
						<path class="st0" d="M577.5,476.6c24.7-36,67.4-58.8,111-59.3c-0.7,0.2-1.3,0.3-2,0.5"/>
						<path class="st0" d="M704.7,495.6c-24.7-36-67.4-58.8-111-59.3c0.7,0.2,1.3,0.3,2,0.5"/>
						<path class="st0" d="M694.6,513.7c-24.7-36-67.4-58.8-111-59.3c0.7,0.2,1.3,0.3,2,0.5"/>
						<path class="st0" d="M684.1,531.8c-24.7-36-67.4-58.8-111-59.3c0.7,0.2,1.3,0.3,2,0.5"/>
						<path class="st0" d="M711.7,481.1c-24.7-36-67.4-58.8-111-59.3c0.7,0.2,1.3,0.3,2,0.5"/>
						<path class="st0" d="M597.2,460.5c31.8,6.7,55.5,5.5,86.5-4.3"/>
					</g>
					<use xlink:href="#SVGID_1_"  style="overflow:visible;fill:none;stroke:#000000;stroke-miterlimit:10;"/>
				</g>
				<path class="st0" d="M605.9,499.1l26.3,125.4c8.3,23.6,42.8,20.2,46.2-4.7l4-129.6l-18.6,9.5c-6.1,3.1-12.7,5.2-19.5,5.9
					c-0.5,0-0.9,0.1-1.4,0.1c-5.6,0.5-11.2-0.3-16.7-1.6L605.9,499.1z"/>
				<path class="st1" d="M677.2,544.3l0.3,24.9c-7.6,1.7-15.4,2.5-23.1,3.1c-10.7,0.7-21.5,0.9-32.2,0.7l-4.6-25.6
					c17,0.1,34-0.6,51-2.1C671.4,544.9,674.3,544.6,677.2,544.3z"/>
				<path class="st0" d="M683.7,456.2"/>
			</g>
			<path class="st0" d="M656.6,640.8c19.1,35.8,27.3,89.1,16.6,128.3c-10.7,39.2-36.9,73.9-71.6,95c-12.2,7.4-30.7,11.9-38.6,0
				c-6-9.1,0-22.4,9.8-26.9c9.9-4.5,21.7-2.1,31.3,2.9c26.9,13.9,41.3,47.7,33.7,76.9c-7.6,29.3-35.8,51.6-66,53.3
				c-14,0.8-41.2-2.6-54.9-5.4"/>
		</g>
	</g>
</g>
</svg>
