<?xml version="1.0" encoding="utf-8"?>
<!-- Generator: Adobe Illustrator 21.0.0, SVG Export Plug-In . SVG Version: 6.00 Build 0)  -->
<svg version="1.1" id="Layer_1" xmlns="http://www.w3.org/2000/svg" xmlns:xlink="http://www.w3.org/1999/xlink" x="0px" y="0px"
	 viewBox="0 0 879.9 1016.4" style="enable-background:new 0 0 879.9 1016.4;" xml:space="preserve">
<style type="text/css">
	.st0{fill:#FFFFFF;stroke:#000000;stroke-linecap:round;stroke-linejoin:round;stroke-miterlimit:10;}
	.st1{fill:#FFFFFF;stroke:#000000;stroke-miterlimit:10;}
	.st2{fill-rule:evenodd;clip-rule:evenodd;fill:#FFFFFF;stroke:#000000;stroke-miterlimit:10;}
	.st3{fill:#FFFFFF;}
</style>
<g>
	<g>
		<path class="st0" d="M631.2,733.4c20.2-65.4-3.8-137.9,14.4-203.9c13-46.9,48-87.3,92.6-106.7c44.6-19.4,98-17.5,141.2,5
			c-47.8,23.9-78.3,78.5-73.6,131.7c4.1,46.1,31.5,87.2,38.3,133c9.5,63.7-24.2,129.5-76.5,167.1c-52.3,37.6-120.3,49.3-184.3,41.7
			c-42.1-5.1-115.1-18-143.8-49.4c16.7-21.4,82.6-13.8,110.9-27.8C587.7,805.7,618.8,773.6,631.2,733.4z"/>
		<path class="st0" d="M703.6,738.1c9.5-13.6,14.2-30,17.7-46.2c10.2-46.7,12.6-95.1,6.9-142.6c-4.7-39.4-14.4-81.8,4-116.9
			c1.7-3.3,3.7-6.4,5.8-9.4c-19,8.3-36.2,20.4-50.7,35.1c-4.6,20-4.8,41.5-3.4,62.2c2.3,35.1,8.3,70.8,1,105.3
			c-6.8,32.2-24.6,60-48.1,83.1c-1.3,8.3-3.1,16.6-5.7,24.7c-9.4,30.4-29.6,56.3-55,75c31.8-8.1,62.4-21,90.4-38.2
			C680.5,761.5,694.1,751.6,703.6,738.1z"/>
		<path class="st0" d="M662.3,872c-48.7,15.2-100.1,18.2-151.3,15.7c25.7,7,52.5,11.2,72.4,13.6c64,7.7,131.9-4,184.3-41.7
			c52.3-37.6,86.1-103.4,76.5-167.1c-2.4-15.8-7.2-31-12.6-46c-4.7,34.5-8.5,69.4-21.8,101.3C784.2,809.1,725.6,852.2,662.3,872z"/>
		<path class="st0" d="M879.4,427.8c-13.3-7-27.7-11.9-42.4-14.9c-16,7.3-30.1,19.5-39.9,34.1c-17.4,25.8-23.5,57.8-24.4,89
			c-0.9,31.2,2.9,62.2,3.3,93.4c0.5,44.3-6.4,90-29.7,127.7c-31.1,50.2-87.9,80-145.8,91.6c-52.6,10.5-106.7,7.8-160.3,3.8
			c15.3,16.2,42.4,27.5,70.8,35.2c51.2,2.5,102.6-0.4,151.3-15.7c63.3-19.8,121.9-62.9,147.4-124.2c13.3-31.9,17.1-66.8,21.8-101.3
			c-10.4-28.7-23-56.7-25.7-87C801.2,506.4,831.7,451.8,879.4,427.8z"/>
		<path class="st1" d="M600.5,848.6c57.9-11.6,114.8-41.4,145.8-91.6c23.3-37.7,30.2-83.4,29.7-127.7c-0.4-31.2-4.2-62.3-3.3-93.4
			c0.9-31.2,7-63.1,24.4-89c9.9-14.6,24-26.9,39.9-34.1c-32.9-6.7-67.9-3.5-98.8,9.9c-0.1,0-0.2,0.1-0.2,0.1c-2.1,3-4,6.1-5.8,9.4
			c-18.5,35.1-8.8,77.5-4,116.9c5.7,47.5,3.3,95.9-6.9,142.6c-3.6,16.2-8.2,32.6-17.7,46.2c-9.4,13.5-23,23.5-37,32.1
			c-27.9,17.2-58.5,30.1-90.4,38.2c-8.1,6-16.7,11.2-25.7,15.7c-28.3,14-94.2,6.4-110.9,27.8c0.2,0.2,0.4,0.4,0.6,0.6
			C493.8,856.4,547.9,859.1,600.5,848.6z"/>
	</g>
	<path class="st0" d="M534.4,515.4l-252.5-1.1C211.6,639.2,170.2,749.4,55.9,836c34,49.1,63.5,101.4,87.8,156
		c49-18.1,99.7-31.4,151.3-39.5l220.6,1.1c51.6,8.1,102.3,21.4,151.3,39.5c24.3-54.6,53.7-106.9,87.8-156
		C640.3,750.5,604.7,640.3,534.4,515.4z"/>
	<path class="st0" d="M767.5,835.8c22.3,10.6,38.8,32.2,44.8,56.2c6.1,24,2.2,50-8.9,72.1c-8.7,17.2-21.8,32.3-38.6,41.7
		c-38,21.4-90.9,7.4-116-28.2c-24.1-34.2-22.4-74.3-5.1-109.3C671.4,812.6,752.5,828.7,767.5,835.8z"/>
	<path class="st0" d="M48.2,835.8C25.9,846.4,9.5,868,3.4,892c-6.1,24-2.2,50,8.9,72.1c8.7,17.2,21.8,32.3,38.6,41.7
		c38,21.4,90.9,7.4,116-28.2c24.1-34.2,22.4-74.3,5.1-109.3C144.3,812.6,63.2,828.7,48.2,835.8z"/>
	<g>
		<g>
			<path class="st0" d="M574.3,290c22.9-26.7,35.6-61,35.3-95.3c-0.2-21.9-5.8-43.7-15.9-63.4c-8.3-16.2-32.2-17.9-42.9-3.1
				c-25.8,35.5-48.4,73.2-67.4,112.3L574.3,290z"/>
			<path class="st0" d="M518.5,240.5c10.6-19.8,22.2-39.2,34.5-58.1c6.7-10.3,22.5-6.6,24.3,5.6c0.7,5.2,1.1,10.4,1.2,15.6
				c0.2,20.9-5.2,42.1-15.4,61.1L518.5,240.5z"/>
			<path class="st0" d="M216.5,290c-22.9-26.7-35.6-61-35.3-95.3c0.2-21.9,5.8-43.7,15.9-63.4c8.3-16.2,32.2-17.9,42.9-3.1
				c25.8,35.5,48.4,73.2,67.4,112.3L216.5,290z"/>
			<path class="st0" d="M227.8,264.8c-10.2-18.9-15.6-40.2-15.4-61.1c0.1-5.2,0.5-10.4,1.2-15.7c1.7-12.2,17.6-15.8,24.3-5.4
				c12.3,18.9,23.8,38.2,34.4,57.9L227.8,264.8z"/>
		</g>
		<path class="st0" d="M160.6,456.4c35.2-225.1,105.2-279.9,234.9-279.9c129.7,0,191.8,50.9,234.9,279.9
			c26.4,140.4-105.2,221.2-234.9,221.2C265.7,677.6,138.5,597.6,160.6,456.4z"/>
		<g>
			<path class="st2" d="M514.1,504.8c-0.4,10,12.4,18.6,28.5,19.2c16.1,0.6,29.5-7.1,29.8-17.1c0.4-10-12.4-18.6-28.5-19.2
				C527.8,487,514.5,494.7,514.1,504.8z"/>
			<path class="st2" d="M213.5,506c-0.4,10,12.4,18.6,28.5,19.2c16.1,0.6,29.5-7.1,29.8-17.1c0.4-10-12.4-18.6-28.5-19.2
				C227.2,488.3,213.9,495.9,213.5,506z"/>
			<g>
				<path class="st3" d="M308.1,485c-2.8-4.8-7.7-7.9-12.6-10.4c-9.1-4.5-19.3-7.3-29.4-6c-10.1,1.2-19.9,6.9-24.5,16"/>
				<g>
					<path d="M309.4,484.3c-7.4-11.4-24.2-17-37.1-17.4c-12.9-0.4-25.7,5.4-32,17c-0.9,1.7,1.7,3.2,2.6,1.5
						c5.8-10.7,17.6-15.9,29.4-15.5c11.8,0.4,27.8,5.6,34.5,15.9C307.8,487.4,310.4,485.9,309.4,484.3L309.4,484.3z"/>
				</g>
			</g>
			<g>
				<path class="st3" d="M550.8,480.8c-2.8-4.8-7.7-7.9-12.6-10.4c-9.1-4.5-19.3-7.3-29.4-6c-10.1,1.2-19.9,6.9-24.5,16"/>
				<g>
					<path d="M552.1,480c-7.4-11.4-24.2-17-37.1-17.4c-12.9-0.4-25.7,5.4-32,17c-0.9,1.7,1.7,3.2,2.6,1.5
						c5.8-10.7,17.6-15.9,29.4-15.5c11.8,0.4,27.8,5.6,34.5,15.9C550.6,483.1,553.2,481.6,552.1,480L552.1,480z"/>
				</g>
			</g>
		</g>
		<g>
			<circle class="st1" cx="352.4" cy="595.4" r="7.8"/>
			<circle class="st1" cx="442.4" cy="595.4" r="7.8"/>
		</g>
		<g>
			<path class="st0" d="M555.4,244.1C555.4,244.1,555.4,244.1,555.4,244.1c-3.1,14.9-7.4,27.4-10.6,34.5
				c-13.4,29.8-37.9,53.5-66.3,60.6v0.1c-1.2,0.3-2.4,0.6-3.6,0.8c2.5-6,4.8-12.2,6.8-18.4c1.7-5.4,3.3-10.8,4.7-16.3
				c4.8-19.7,7.3-40.1,7.1-60.6c-0.2-18.4-2.4-36.7-2.3-55c0-3.7,0.2-7.5,0.7-11.1c4.7,1.1,9.1,2.3,13.3,3.9
				c14.7,5.2,26.5,12.8,35.5,23.3C549.8,216.6,554.1,230.6,555.4,244.1z"/>
			<path class="st1" d="M370.4,282.5c-1,2.7-2,5.1-2.9,7.2c-13.3,29.5-36.1,53.7-63.1,64.5c-1,0.4-2,0.8-3,1.1c-1,0.4-2,0.7-3,1.1
				c-3.1,1-6.2,1.7-9.4,2.4c9.5-22.6,15.9-47,18.8-71.9c1.4-11.6,2.1-23.4,2-35.1c-0.2-20.6-2.6-41.2-2.6-61.8
				c0.1-3.2,0.1-6.4,0.4-9.6c4.7-1,9.8-1.8,15.6-2.6c12.2-1.4,27.1-2.4,46.1-3.3c3.2-0.2,6.4-0.3,9.8-0.5c1.4,3.3,2.3,6.8,3,10.5
				C388.3,220.6,378.3,261.4,370.4,282.5z"/>
			<path class="st0" d="M311.9,278.6c-1.3,2.8-2.6,5.5-4.1,8.2c-14.6,27.1-38.6,47.9-65.8,53.4c12.4-29.6,18.8-62.5,18.5-95.3
				c-0.1-8.9-0.7-17.9-1.3-26.8c1.6-4.5,3.7-8.6,6.4-12.1c11.3-14,21.9-21.3,41.9-25.6c4.7-1,9.8-1.8,15.6-2.6
				c0.7,2.3,1.3,4.7,1.7,7.2C331.1,221.3,319,262.8,311.9,278.6z"/>
			<path class="st0" d="M492,294.3c-1.7,3.8-3.6,7.5-5.7,11.2c-16.5,29.5-42.9,52-72.9,58c0.2-0.4,0.4-0.8,0.5-1.3
				c0.1-0.1,0.2-0.3,0.2-0.4c5.3-12.9,20.3-86.6,20.1-105.3c-0.2-20.6-2.6-41.2-2.6-61.8c0.1-7.3,0.5-15,2.6-21.9
				c4.8,0.1,9.4,0.2,14,0.4h0.1c16.3,0.8,30.8,2.5,43.5,5.6c4.7,1.1,9.1,2.3,13.3,3.9c0.7,2.1,1.2,4.3,1.6,6.6
				C513.6,229.9,499.9,276.6,492,294.3z"/>
			<path class="st0" d="M435,300.3c-1.8,4.1-6.1,11.9-6.1,11.9c0.1,0.1,0.1,0.1,0,0.1c-11.5,20.7-27.4,38.3-46,50.1
				c-0.1,0.1-0.2,0.2-0.4,0.2c-10.7,6.9-22.4,11.7-34.5,14.1c0.2-0.4,0.4-0.9,0.5-1.3c12-29.2,19.4-60.8,21.7-93
				c0.6-8,0.8-16,0.8-24.1c-0.2-22.8-2.9-45.6-2.8-68.4c0-5.1,0.2-10.4,1-15.5c3.2-0.2,6.4-0.3,9.8-0.5c6.2-0.2,12.8-0.5,19.9-0.8
				c12.5-0.5,24.3-0.7,35.2-0.5c4.8,0.1,9.4,0.2,14,0.4h0.1c1.3,3.4,2.3,7,2.9,10.9C458.9,229.1,443.8,280.7,435,300.3z"/>
		</g>
		<g>
			<path class="st0" d="M408.1,7.9l31,208.3c0.8,5.3-2.5,10.3-7.6,11.7l-0.2,0c-22.2,6-45.6,6-67.8,0l0,0c-5.2-1.4-8.5-6.6-7.6-11.9
				L390.6,7.9C392.2-2,406.5-2,408.1,7.9z"/>
			<path class="st1" d="M363.5,227.9c9.2,2.5,18.5,3.9,27.9,4.3l43.6-43.6l-6.4-42.7l-72.8,72.8C356.3,223,359.2,226.8,363.5,227.9z
				"/>
			<path class="st1" d="M408.1,7.9c-1.6-9.9-15.9-9.9-17.5,0l-5.8,34.6l24.8-24.8L408.1,7.9z"/>
			<polygon class="st1" points="365.2,160.4 422.3,103.2 415.9,60.5 375,101.4 			"/>
		</g>
	</g>
	<g>
		<path class="st0" d="M328.6,676.9c0.2,20.6,3,41.1,8.3,61c2.6,9.9,6,19.9,12.9,27.5c14.2,15.6,38.1,16.2,59.1,15.3
			c14.1-0.6,30-2.4,38.6-13.6c4-5.2,5.7-11.8,7.1-18.2c5-22.6,7.5-45.7,7.4-68.8L328.6,676.9z"/>
		<path class="st0" d="M336.2,703.7c6.6,0.7,13.4-2.6,17-8.1c2.1,4.9,7.3,8.3,12.6,8.1c5.3-0.2,10.3-3.9,12.1-8.9
			c1.1,5.5,4.6,11,10,12.6c5.4,1.6,12.3-2.6,11.8-8.2c2.9,5.1,8,9.4,13.8,9.6c5.9,0.2,11.8-5.1,10.8-10.9c0.9,4.3,5.3,7.6,9.7,7.2
			c4.4-0.3,8.2-4.2,8.5-8.6c2.1,6.9,11.1,10.2,17.8,7.6c6.8-2.6,11.1-9.6,12.1-16.8c1-7.2-0.9-14.5-3.5-21.2
			c-7-17.8-22.7-51.2-91.7-46.5C324,623.1,300,699.7,336.2,703.7z"/>
		<path class="st0" d="M409.6,605.1c5,8.2,2,20.4-6.4,25.1c-8.4,4.7-20.6,0.6-24.1-8.3C370.8,601.1,397.6,585.3,409.6,605.1z"/>
	</g>
	<g>
		<path class="st0" d="M603.9,673.4c-22.9-1.9-12-1.1-109.3-15.1c-14.5-0.7-27.2,3.9-37.6,10.4c-30.5,19.1-38.7,61.1-14.7,88
			c6.4,7.1,14.8,13.1,26.1,16.6c102.7,18.8,50.9,8.5,172.1,33.5"/>
		<path class="st0" d="M468.4,773.2c-11.2-3.4-19.7-9.5-26.1-16.6c-24-26.8-15.9-68.9,14.7-88c10.5-6.5,23.1-11.1,37.6-10.4
			c4.5,0.6,9,1.1,13.5,1.7c-0.2,39.7-5.6,79.4-16,117.8C484.2,776.1,476.3,774.7,468.4,773.2z"/>
	</g>
	<g>
		<path class="st0" d="M212,669.8c108.3-13.3,8.4-2.8,88.8-11.5c14.5-0.7,27.2,3.9,37.6,10.4c30.5,19.1,38.7,61.1,14.7,88
			c-6.4,7.1-14.8,13.1-26.1,16.6c-102.7,18.8-50.9,8.5-172.1,33.5"/>
		<path class="st0" d="M327,773.2c11.2-3.4,19.7-9.5,26.1-16.6c24-26.8,15.9-68.9-14.7-88c-10.5-6.5-23.1-11.1-37.6-10.4
			c-4.5,0.6-9,1.1-13.5,1.7c0.2,39.7,5.6,79.4,16,117.8C311.1,776.1,319,774.7,327,773.2z"/>
	</g>
</g>
</svg>
