<?xml version="1.0" encoding="utf-8"?>
<!-- Generator: Adobe Illustrator 21.0.0, SVG Export Plug-In . SVG Version: 6.00 Build 0)  -->
<svg version="1.1" id="Layer_1" xmlns="http://www.w3.org/2000/svg" xmlns:xlink="http://www.w3.org/1999/xlink" x="0px" y="0px"
	 viewBox="0 0 806.9 1077.2" style="enable-background:new 0 0 806.9 1077.2;" xml:space="preserve">
<style type="text/css">
	.st0{fill:#FFFFFF;stroke:#000000;stroke-linecap:round;stroke-linejoin:round;stroke-miterlimit:10;}
	.st1{fill:#FFFFFF;stroke:#000000;stroke-miterlimit:10;}
	.st2{fill-rule:evenodd;clip-rule:evenodd;fill:#FFFFFF;stroke:#000000;stroke-miterlimit:10;}
</style>
<g>
	<g>
		<g>
			<g>
				<path class="st0" d="M688.7,331.2c-5,4.6-8.6,11.9-4.3,17.3c2.8,3.5,7.4,5.1,11.9,5.4c2.2,0.2,4.6,0.1,6.7-0.8
					c6.9-2.7,8.7-12.9,4.2-18.8C707.1,334.5,696.1,324.4,688.7,331.2z"/>
				<path class="st0" d="M709.4,345.2c1.9-14.9,4.5-29.7,8-44.3c2-8.6,5.1-18,12.8-22.1"/>
			</g>
			<g>
				<path class="st0" d="M632.7,315.8c-5,4.6-8.6,11.9-4.3,17.3c2.8,3.5,7.4,5.1,11.9,5.4c2.2,0.2,4.6,0.1,6.7-0.8
					c6.9-2.7,8.7-12.9,4.2-18.8C651.1,319.1,640.2,309,632.7,315.8z"/>
				<path class="st0" d="M653.5,329.8c1.9-14.9,4.5-29.7,8-44.3c2-8.6,5.1-18,12.8-22.1"/>
			</g>
			<g>
				<path class="st0" d="M56.9,386.2c-3.4,6-4.5,14,1.2,17.8c3.7,2.5,8.6,2.6,13,1.5c2.2-0.5,4.4-1.3,6.1-2.8
					c5.8-4.7,4.4-14.9-1.7-19.1C75.4,383.6,61.9,377.4,56.9,386.2z"/>
				<path class="st0" d="M80.9,393.1c-2.8-14.8-6.3-41.9-7.5-56.8c-0.7-8.8-0.7-18.6,5.4-25c0,0,0.9,4.1,12.2,11.5
					c11.3,7.4,8.9,26.1,8.9,26.1"/>
			</g>
			<path class="st0" d="M664.4,261.4c29.8,5.8,40.9,8.4,70.7,14.2"/>
		</g>
		<g>
			<path class="st0" d="M0.5,501.1c13.9-13.6,32.2-22.6,51.5-25.3"/>
			<path class="st0" d="M12.9,522.8c13.9-13.6,32.2-22.6,51.5-25.3"/>
		</g>
		<g>
			<path class="st0" d="M660.6,202.1c5-18.8,3.9-39.2-3.2-57.3"/>
			<path class="st0" d="M635.6,201.9c5-18.8,3.9-39.2-3.2-57.3"/>
		</g>
	</g>
	<g>
		<g>
			<g>
				<path class="st0" d="M581.8,716.9c18.3-59.2-3.4-124.7,13.1-184.4c11.7-42.4,43.4-78.9,83.8-96.5c40.4-17.6,88.7-15.9,127.7,4.5
					c-43.2,21.6-70.8,71-66.6,119.2c3.7,41.7,28.5,78.9,34.7,120.3c8.6,57.7-21.9,117.1-69.2,151.1c-47.3,34-108.8,44.6-166.7,37.7
					c-38.1-4.6-104.1-16.3-130.1-44.7c15.1-19.3,74.7-12.5,100.3-25.1C542.5,782.2,570.6,753.2,581.8,716.9z"/>
				<path class="st0" d="M647.3,721.1c8.6-12.3,12.8-27.1,16-41.8c9.3-42.2,11.4-86,6.2-129c-4.3-35.6-13-74,3.7-105.8
					c1.6-3,3.3-5.8,5.2-8.5c-17.2,7.5-32.7,18.4-45.9,31.8c-4.1,18.1-4.3,37.6-3.1,56.2c2.1,31.8,7.5,64,0.9,95.2
					c-6.2,29.2-22.2,54.3-43.5,75.2c-1.2,7.5-2.8,15-5.1,22.4c-8.5,27.5-26.8,50.9-49.8,67.8c28.8-7.4,56.5-19,81.7-34.6
					C626.4,742.3,638.8,733.3,647.3,721.1z"/>
				<path class="st0" d="M610,842.2c-44,13.8-90.6,16.4-136.9,14.2c23.3,6.4,47.5,10.1,65.5,12.3c57.9,6.9,119.3-3.6,166.7-37.7
					c47.3-34,77.8-93.5,69.2-151.1c-2.1-14.2-6.5-28-11.4-41.6c-4.3,31.2-7.7,62.7-19.7,91.6C720.2,785.3,667.2,824.3,610,842.2z"/>
				<path class="st0" d="M806.4,440.5c-12.1-6.3-25-10.8-38.3-13.5c-14.5,6.6-27.2,17.7-36.1,30.9c-15.8,23.4-21.2,52.3-22.1,80.5
					c-0.8,28.2,2.6,56.3,3,84.5c0.5,40.1-5.8,81.4-26.9,115.5c-28.1,45.4-79.5,72.4-131.9,82.8c-47.6,9.5-96.5,7-145,3.5
					c13.8,14.7,38.4,24.8,64.1,31.9c46.3,2.3,92.8-0.4,136.9-14.2c57.3-17.9,110.3-56.9,133.4-112.3c12-28.9,15.5-60.4,19.7-91.6
					c-9.4-25.9-20.8-51.3-23.3-78.7C735.6,511.5,763.2,462.1,806.4,440.5z"/>
				<path class="st1" d="M554.1,821.1c52.4-10.5,103.8-37.4,131.9-82.8c21.1-34.1,27.3-75.4,26.9-115.5c-0.3-28.2-3.8-56.3-3-84.5
					c0.8-28.2,6.3-57.1,22.1-80.5c8.9-13.2,21.7-24.3,36.1-30.9c-29.8-6.1-61.5-3.1-89.4,9c-0.1,0-0.1,0.1-0.2,0.1
					c-1.9,2.7-3.7,5.5-5.2,8.5c-16.7,31.8-7.9,70.1-3.7,105.8c5.1,42.9,3,86.7-6.2,129c-3.2,14.7-7.4,29.5-16,41.8
					c-8.5,12.2-20.8,21.2-33.5,29c-25.3,15.6-53,27.2-81.7,34.6c-7.3,5.4-15.1,10.2-23.2,14.2c-25.6,12.7-85.2,5.8-100.3,25.1
					c0.2,0.2,0.4,0.3,0.5,0.5C457.5,828.1,506.5,830.6,554.1,821.1z"/>
			</g>
			<g>
				<g>
					<g>
						<g>
							<g>
								<path class="st0" d="M315.7,723c-53.5,83-176,262.7-180.2,276.3c-9.5,31.2,57.9,77.8,89.2,68.8
									c8.3-2.4,127.9-180,188.7-252.3"/>
								<path class="st0" d="M251.5,1034.7c-14.6,19.9-24.6,32.8-26.8,33.4c-31.3,9-98.7-37.6-89.2-68.8c0.9-3,7.4-13.7,17.5-29.7
									C181.3,997.3,215,1019.5,251.5,1034.7z"/>
							</g>
							<g>
								<path class="st0" d="M453.8,718.9c40.4,90.1,134.6,286.2,136.6,300.2c4.7,32.2-68.9,68.2-98.6,54.6
									c-7.8-3.6-99.4-197.2-148.6-277.8"/>
								<path class="st0" d="M470.4,1036.6c11.5,21.9,19.4,36.1,21.5,37.1c29.6,13.6,103.2-22.4,98.6-54.6
									c-0.4-3.1-5.2-14.7-12.8-32C545.4,1010.2,508.8,1027.1,470.4,1036.6z"/>
							</g>
						</g>
						<g>
							<g>
								<path class="st0" d="M182.7,699.3c-82.9-53.6-41.5-25.6-124.4-79.3c-10.5-7.9-16.6-18.5-20.1-29
									c-10.1-31,8.6-64.9,40.9-69.6c8.5-1.2,17.9-0.5,27.7,3.6c82.2,46.5,40.3,23.6,138.8,76.6"/>
								<path class="st0" d="M106.8,525.1c-9.8-4.1-19.2-4.8-27.7-3.6c-32.2,4.7-51,38.6-40.9,69.6c3.5,10.6,9.6,21.1,20.1,29.1
									c3.5,2.2,6.9,4.5,10.4,6.7c22.9-27.7,42.2-58.4,57.2-91C119.5,532.2,113.2,528.7,106.8,525.1z"/>
							</g>
							<g>
								<path class="st0" d="M554.8,706.4c79.2-59,39.7-28.3,118.9-87.3c10-8.6,15.4-19.5,18.1-30.3c8-31.6-12.9-64.2-45.3-66.7
									c-8.6-0.7-17.9,0.7-27.4,5.4c-79,51.8-38.6,26.3-133.5,85.6"/>
								<path class="st0" d="M619,527.5c9.5-4.8,18.8-6.1,27.4-5.4c32.5,2.5,53.4,35.1,45.4,66.7c-2.8,10.8-8.2,21.7-18.1,30.3
									c-3.3,2.4-6.6,4.9-9.9,7.4c-24.7-26.1-46-55.5-63.1-87C606.8,535.5,612.9,531.5,619,527.5z"/>
							</g>
						</g>
					</g>
					<path class="st0" d="M216.8,520.9c-12,57.5-24.1,115.1-36.1,172.6c-10.5,49.9-20.6,103.7-0.1,150.4
						c18,41.1,57.6,69.8,100.2,83.7c42.7,13.9,88.4,14.6,133.2,12.5c47.4-2.2,99.2-9.4,131.4-44.3c37.5-40.7,34.7-103.3,27.6-158.2
						c-9.9-77.8-23.6-155.2-40.9-231.7L216.8,520.9z"/>
				</g>
				<g>
					<g>
						<g>
							<path class="st0" d="M538.5,260.7c20.7-24.2,32.2-55.2,31.9-86.2c-0.2-19.8-5.2-39.5-14.4-57.3c-7.5-14.6-29.1-16.2-38.8-2.8
								c-23.4,32.1-43.8,66.2-60.9,101.6L538.5,260.7z"/>
							<path class="st0" d="M484.5,216c9.6-17.9,20-35.4,31.2-52.5c6.1-9.3,20.4-5.9,22,5.1c0.7,4.7,1,9.4,1.1,14.1
								c0.2,18.9-4.7,38.1-13.9,55.2L484.5,216z"/>
							<path class="st0" d="M211.4,260.7c-20.7-24.2-32.2-55.2-31.9-86.2c0.2-19.8,5.2-39.5,14.4-57.3c7.5-14.6,29.1-16.2,38.8-2.8
								c24.6,33.9,44.4,67.4,60.9,101.6L211.4,260.7z"/>
							<path class="st0" d="M221.6,237.9c-9.2-17.1-14.1-36.3-13.9-55.2c0.1-4.7,0.4-9.4,1.1-14.2c1.6-11.1,15.9-14.3,22-4.9
								c11.1,17.1,21.5,34.6,31.1,52.4L221.6,237.9z"/>
						</g>
						<path class="st0" d="M160.7,411.2C192.6,207.6,255.8,158,373.2,158s173.5,46,212.4,253.2c23.9,127-95.1,200.1-212.4,200.1
							S140.7,538.9,160.7,411.2z"/>
						<g>
							<path class="st2" d="M264.1,457.1c-0.6,8.9-12.7,15.4-27,14.5c-14.3-0.9-25.5-8.9-24.9-17.8c0.6-8.9,12.7-15.4,27-14.5
								C253.5,440.1,264.7,448.1,264.1,457.1z"/>
							<g>
								<path class="st1" d="M266.1,394.3c-0.5,0-1,0.1-1.6,0.1c-7.5,0.7-15,4.6-19.9,10.4c-4.6,5.5-7.7,14.1-6.7,21.4
									c1,7.5,4.2,15.1,10.4,19.9c6.2,4.7,13.5,7.4,21.4,6.7c0.5,0,1-0.1,1.6-0.1c7.5-0.7,15-4.6,19.9-10.4
									c4.6-5.5,7.7-14.1,6.7-21.4c-1-7.5-4.2-15.1-10.4-19.9C281.3,396.3,274,393.6,266.1,394.3L266.1,394.3z"/>
							</g>
							<path class="st2" d="M486.3,457.1c0.6,8.9,12.7,15.4,27,14.5c14.3-0.9,25.5-8.9,24.9-17.8c-0.6-8.9-12.7-15.4-27-14.5
								C496.9,440.1,485.7,448.1,486.3,457.1z"/>
							<g>
								<path class="st1" d="M484.3,394.3c0.5,0,1,0.1,1.6,0.1c7.5,0.7,15,4.6,19.9,10.4c4.6,5.5,7.7,14.1,6.7,21.4
									c-1,7.5-4.2,15.1-10.4,19.9c-6.2,4.7-13.5,7.4-21.4,6.7c-0.5,0-1-0.1-1.6-0.1c-7.5-0.7-15-4.6-19.9-10.4
									c-4.6-5.5-7.7-14.1-6.7-21.4c1-7.5,4.2-15.1,10.4-19.9C469.1,396.3,476.4,393.6,484.3,394.3L484.3,394.3z"/>
							</g>
						</g>
						<g>
							<circle class="st1" cx="334.2" cy="536.9" r="7.1"/>
							<circle class="st1" cx="415.7" cy="536.9" r="7.1"/>
						</g>
						<g>
							<path class="st0" d="M515.7,220.9C515.7,220.9,515.7,220.9,515.7,220.9c-2.8,13.5-6.7,24.8-9.6,31.2
								c-12.1,27-34.3,48.4-60,54.9v0.1c-1.1,0.3-2.2,0.5-3.3,0.8c2.3-5.4,4.3-11,6.1-16.7c1.6-4.9,3-9.8,4.2-14.8
								c4.4-17.8,6.6-36.3,6.4-54.8c-0.2-16.6-2.2-33.2-2.1-49.8c0-3.3,0.2-6.7,0.6-10c4.3,1,8.3,2.1,12,3.5
								c13.3,4.7,23.9,11.5,32.1,21.1C510.7,196,514.5,208.6,515.7,220.9z"/>
							<path class="st1" d="M348.4,255.5c-0.9,2.5-1.8,4.6-2.6,6.5c-12,26.6-32.7,48.5-57.1,58.4c-0.9,0.4-1.8,0.7-2.7,1
								c-0.9,0.3-1.8,0.6-2.8,1c-2.8,0.9-5.6,1.6-8.5,2.2c8.6-20.4,14.3-42.5,17-65c1.3-10.5,1.9-21.1,1.8-31.7
								c-0.2-18.7-2.4-37.3-2.3-55.9c0.1-2.9,0.1-5.8,0.4-8.7c4.2-0.9,8.8-1.6,14.1-2.3c11-1.3,24.5-2.2,41.7-3
								c2.9-0.2,5.8-0.3,8.9-0.4c1.2,3,2.1,6.1,2.7,9.5C364.6,199.6,355.5,236.5,348.4,255.5z"/>
							<path class="st0" d="M295.4,252.1c-1.1,2.5-2.4,5-3.7,7.4c-13.2,24.5-34.9,43.4-59.5,48.3c11.2-26.8,17-56.5,16.8-86.2
								c-0.1-8.1-0.6-16.2-1.1-24.3c1.4-4.1,3.3-7.8,5.8-10.9c10.2-12.7,19.8-19.3,37.9-23.1c4.2-0.9,8.8-1.6,14.1-2.3
								c0.6,2.1,1.2,4.3,1.6,6.5C312.9,200.2,301.9,237.8,295.4,252.1z"/>
							<path class="st0" d="M458.3,266.2c-1.6,3.5-3.2,6.8-5.1,10.1c-14.9,26.7-38.8,47-65.9,52.4c0.2-0.4,0.3-0.8,0.4-1.1
								c0.1-0.1,0.2-0.3,0.2-0.4c4.8-11.7,18.3-78.3,18.2-95.3c-0.2-18.7-2.4-37.3-2.3-55.9c0.1-6.6,0.5-13.6,2.3-19.8
								c4.4,0.1,8.5,0.2,12.6,0.4h0.1c14.8,0.7,27.9,2.3,39.3,5.1c4.3,1,8.3,2.1,12,3.5c0.6,1.9,1.1,3.9,1.4,5.9
								C477.9,208,465.6,250.3,458.3,266.2z"/>
							<path class="st0" d="M406.8,271.7c-1.7,3.7-5.5,10.8-5.5,10.8c0.1,0.1,0.1,0.1,0,0.1c-10.4,18.7-24.8,34.6-41.6,45.3
								c-0.1,0.1-0.2,0.2-0.3,0.2c-9.7,6.2-20.2,10.6-31.2,12.8c0.2-0.4,0.3-0.8,0.5-1.2c10.9-26.4,17.6-55,19.6-84.1
								c0.5-7.2,0.8-14.5,0.7-21.8c-0.2-20.7-2.6-41.2-2.5-61.9c0-4.6,0.2-9.4,0.9-14c2.9-0.2,5.8-0.3,8.9-0.4
								c5.6-0.2,11.6-0.4,18-0.7c11.3-0.4,22-0.6,31.9-0.5c4.4,0.1,8.5,0.2,12.6,0.4h0.1c1.2,3.1,2,6.4,2.6,9.8
								C428.5,207.3,414.8,254,406.8,271.7z"/>
						</g>
						<g>
							<path class="st0" d="M382.5,7.2l28,188.4c0.7,4.8-2.3,9.3-6.9,10.6l-0.1,0c-20.1,5.5-41.2,5.5-61.3,0l0,0
								c-4.7-1.3-7.7-5.9-6.9-10.8L366.7,7.2C368.1-1.7,381-1.7,382.5,7.2z"/>
							<path class="st1" d="M342.2,206.2c8.3,2.3,16.8,3.5,25.3,3.9l39.4-39.4l-5.7-38.7l-65.8,65.8
								C335.6,201.8,338.3,205.2,342.2,206.2z"/>
							<path class="st1" d="M382.5,7.2c-1.5-9-14.4-9-15.9,0l-5.2,31.3l22.4-22.4L382.5,7.2z"/>
							<polygon class="st1" points="343.7,145.1 395.3,93.4 389.6,54.8 352.6,91.8 							"/>
						</g>
					</g>
				</g>
			</g>
		</g>
	</g>
</g>
</svg>
