<?xml version="1.0" encoding="utf-8"?>
<!-- Generator: Adobe Illustrator 21.0.0, SVG Export Plug-In . SVG Version: 6.00 Build 0)  -->
<svg version="1.1" id="Layer_1" xmlns="http://www.w3.org/2000/svg" xmlns:xlink="http://www.w3.org/1999/xlink" x="0px" y="0px"
	 viewBox="0 0 855.8 991.4" style="enable-background:new 0 0 855.8 991.4;" xml:space="preserve">
<style type="text/css">
	.st0{fill:#FFFFFF;stroke:#000000;stroke-linecap:round;stroke-linejoin:round;stroke-miterlimit:10;}
	.st1{fill:#FFFFFF;stroke:#000000;stroke-miterlimit:10;}
	.st2{fill-rule:evenodd;clip-rule:evenodd;fill:#FFFFFF;stroke:#000000;stroke-miterlimit:10;}
	.st3{fill:#FFFFFF;}
</style>
<g>
	<path class="st0" d="M389.8,134.1c11.4-6.1,24.6-8.9,37.4-7.7c-7.2,13.1-14.4,26.2-21.6,39.3c9.8-2.4,19.5-4.7,29.3-7.1
		c-1,0.2-1.9,0.4-2.9,0.7"/>
	<path class="st0" d="M433.3,70.1c11.5-0.8,22.9-1.7,34.4-2.5c-7.5,10.1-12.2,22.2-13.4,34.8c9.8-2.7,19.5-5.4,29.3-8.2"/>
	<path class="st0" d="M466.1,12.3c8.5-5.8,18.2-9.7,28.2-11.5c-6.2,11.2-9.5,23.9-9.5,36.6c8.5-0.7,16.7-4.6,22.6-10.7"/>
	<path class="st0" d="M531.4,19.5c-0.1,2.7-4.9,1.6-3.4,2.1"/>
	<path class="st0" d="M557.7,10.7c-0.1,2.7-4.9,1.6-3.4,2.1"/>
	<path class="st0" d="M578.6,3c-0.1,2.7-4.9,1.6-3.4,2.1"/>
	<g>
		<g>
			<path class="st0" d="M621.7,585.5c74.8,3.2,151.4,33.8,195.6,94.3c38.5,52.6,48,174-0.5,248.8c-71.3,110-435.3,43.8-644.1,25.6
				c-6-0.5-12.3-1.2-17-4.9c-5.7-4.4-7.6-12.1-9.1-19.1c-14.9-70.4-19-212-20.4-283.9C173.9,638.7,546.9,582.3,621.7,585.5z"/>
			<g>
				<g>
					<path class="st0" d="M99.5,699.5c-48.3-0.9-90.7,42-97.5,89.8c-6.9,47.8,16.8,96.5,53,128.5c15.1,13.4,32.3,24.2,49.6,34.7
						c14.5,8.8,29.4,17.6,45.9,21.7c16.5,4.1,35,3.1,49-6.5c23.9-16.4,26.5-52.4,14.4-78.8c-12.1-26.4-34.9-45.9-55.6-66.3
						c-11.8-11.6-23.9-25.4-24-42c-0.2-19,15.2-34.1,29.4-46.7"/>
					<path class="st0" d="M358,734.8c-18.7,37-51.1,67-89.4,82.8c-26.9,11.1-57.8,16.2-78.7,36.5c-26,25.3-26.8,71.9-1.6,98.1
						c28.7,29.8,76.9,28.3,116.9,17.6c69.9-18.7,137-63,164.2-130"/>
				</g>
				<path class="st0" d="M199.5,967.7c-14,9.7-32.5,10.7-49,6.5c-13.5-3.4-26-9.9-38.1-17.1c14.2-41.8,38-80.4,69-111.9
					c13,13.1,24.9,27,32.5,43.7C226,915.3,223.5,951.2,199.5,967.7z"/>
				<path class="st0" d="M267.4,976.4c-29.6,2.2-59.2-3.3-79.2-24.2c-25.2-26.1-24.4-72.8,1.6-98.1c10.9-10.5,24.4-17,38.6-22.2
					c1.3,2.4,2.6,4.8,3.9,7.2C254.3,881.4,266.3,928.8,267.4,976.4z"/>
			</g>
			<g>
				<path class="st0" d="M763.2,691.5c-55.9-14.4-116.1,4.7-164.1,36.7c-69.9,46.6-124.8,121.5-206.8,140.2
					c-40.2,9.2-83.8,2.9-119.8-17.3c20,62.9,81.2,104.4,144.1,124.4c38.4,12.2,79.9,18.2,119.2,9c53.5-12.5,96.4-50.9,143.5-79.2
					c47-28.4,109-46.5,155.4-17.1C874.8,810.7,857.4,715.7,763.2,691.5z"/>
				<path class="st0" d="M755.8,855.9c-52.1-6.5-102.5,20.9-144.3,52.8c-35.9,27.3-69.4,59-108.9,80c11.2-0.4,22.3-1.7,33.3-4.3
					c53.5-12.5,96.4-50.9,143.5-79.2c43-25.9,98.4-43.2,143.1-23.5c-8.4-6.7-18.6-11.9-28.6-15.7
					C781.6,861.3,768.9,857.5,755.8,855.9z"/>
				<path class="st0" d="M730.8,808.9c-38.7,3.9-71.8,28.2-103.3,50.9c-43.2,31.1-87.8,61.1-136.8,82c-30.4,13-62.7,22.3-95.4,25.9
					c7.1,2.9,14.3,5.5,21.5,7.8c27.7,8.8,57,14.3,85.9,13.3c39.5-21,73.1-52.7,108.9-80c41.8-31.8,92.1-59.3,144.3-52.8
					c13,1.6,25.8,5.4,38,10c10,3.8,20.2,9,28.6,15.7c4.2,1.8,8.3,3.9,12.3,6.4c2.2-4.2,4.1-8.4,6-12.7c-4.9-12.3-12-23.7-21.1-33.4
					C797.1,818.2,763.3,805.6,730.8,808.9z"/>
				<path class="st1" d="M674.1,794.5c-35.5,19-67.6,43.7-100.9,66.4c-48.4,32.9-101.1,62.1-158.9,71.4c-28.4,4.6-58.4,3.7-86.3-3.5
					c19.9,16.2,43,29.1,67.1,38.8c32.8-3.5,65.1-12.9,95.4-25.9c49-20.9,93.5-50.9,136.8-82c31.5-22.7,64.7-46.9,103.3-50.9
					c32.6-3.3,66.4,9.3,88.8,33.1c9.1,9.7,16.2,21.1,21.1,33.4c12.6-29.5,17-60.7,12.4-89.1c-18.7-12.2-41.1-19.4-63.4-21
					C749.5,762.4,709.6,775.6,674.1,794.5z"/>
				<path class="st0" d="M777.6,696c-35.8,7.2-70.3,22.5-102,41C629,764,586.9,798.1,542,827.7c-45,29.6-94.1,55.2-147.5,62.2
					c-38.9,5.1-80.4-1-114.2-20c11.1,22.9,27.7,42.6,47.8,58.9c27.9,7.1,57.8,8.1,86.3,3.5c57.8-9.3,110.5-38.5,158.9-71.4
					c33.3-22.7,65.3-47.4,100.9-66.4c35.5-19,75.4-32.1,115.6-29.3c22.4,1.6,44.7,8.8,63.4,21C846.6,746.6,822.3,712.4,777.6,696z"
					/>
			</g>
			<g>
				<g>
					<path class="st0" d="M443.3,417.8c23.2-27.1,36.1-61.8,35.7-96.5c-0.2-22.2-5.9-44.2-16.1-64.2c-8.4-16.4-32.6-18.1-43.5-3.1
						c-26.2,36-49,74.1-68.2,113.7L443.3,417.8z"/>
					<path class="st0" d="M382.9,367.6c10.8-20,22.4-39.7,34.9-58.8c6.8-10.4,22.8-6.6,24.6,5.7c0.8,5.3,1.2,10.6,1.2,15.8
						c0.2,21.2-5.3,42.7-15.6,61.8L382.9,367.6z"/>
					<path class="st0" d="M77.1,417.8c-23.2-27.1-36.1-61.8-35.7-96.5c0.2-22.2,5.9-44.2,16.1-64.2c8.4-16.4,32.6-18.1,43.5-3.1
						c27.6,37.9,49.7,75.5,68.2,113.7L77.1,417.8z"/>
					<path class="st0" d="M88.5,392.2c-10.3-19.2-15.8-40.7-15.6-61.8c0.1-5.3,0.5-10.6,1.2-15.8c1.8-12.4,17.8-16,24.7-5.5
						c12.5,19.1,24.1,38.7,34.9,58.7L88.5,392.2z"/>
				</g>
				<path class="st0" d="M20.5,586.2c35.7-227.9,106.5-283.4,237.8-283.4c131.3,0,194.2,51.5,237.8,283.4
					c26.7,142.2-106.5,223.9-237.8,223.9C126.9,810.2-1.9,729.1,20.5,586.2z"/>
				<g>
					<path class="st2" d="M377.3,635.1c-0.4,10.2,12.6,18.9,28.9,19.4c16.3,0.6,29.8-7.2,30.2-17.3c0.4-10.2-12.6-18.9-28.9-19.4
						C391.2,617.1,377.6,624.9,377.3,635.1z"/>
					<path class="st2" d="M72.9,636.3c-0.4,10.2,12.6,18.9,28.9,19.4c16.3,0.6,29.8-7.2,30.2-17.3c0.4-10.2-12.6-18.9-28.9-19.4
						C86.8,618.4,73.3,626.1,72.9,636.3z"/>
					<g>
						<path class="st3" d="M101.7,598.6c2.9,4.8,7.8,8,12.8,10.5c9.2,4.6,19.6,7.4,29.8,6.1c10.2-1.3,20.1-7,24.8-16.2"/>
						<g>
							<path d="M100.4,599.4c7.4,11.4,24.1,17.1,37.1,17.6c13.2,0.5,26.4-5.3,32.9-17.2c0.9-1.7-1.7-3.2-2.6-1.5
								c-6,11-18.1,16.2-30.3,15.7c-11.9-0.5-27.7-5.7-34.5-16.1C101.9,596.3,99.3,597.8,100.4,599.4L100.4,599.4z"/>
						</g>
					</g>
					<g>
						<path class="st3" d="M347.5,594.4c2.9,4.8,7.8,8,12.8,10.5c9.2,4.6,19.6,7.4,29.8,6.1c10.2-1.3,20.1-7,24.8-16.2"/>
						<g>
							<path d="M346.2,595.1c7.4,11.4,24.1,17.1,37.1,17.6c13.2,0.5,26.4-5.3,32.9-17.2c0.9-1.7-1.7-3.2-2.6-1.5
								c-6,11-18.1,16.2-30.3,15.7c-11.9-0.5-27.7-5.7-34.5-16.1C347.7,592,345.1,593.5,346.2,595.1L346.2,595.1z"/>
						</g>
					</g>
				</g>
				<g>
					<circle class="st1" cx="214.7" cy="726.9" r="7.9"/>
					<circle class="st1" cx="305.8" cy="726.9" r="7.9"/>
				</g>
				<g>
					<path class="st0" d="M417.8,373.1C417.8,373.1,417.8,373.1,417.8,373.1c-3.1,15.1-7.5,27.7-10.7,35
						c-13.6,30.2-38.4,54.2-67.1,61.4v0.1c-1.2,0.3-2.4,0.6-3.7,0.8c2.5-6.1,4.8-12.3,6.9-18.7c1.8-5.4,3.3-10.9,4.7-16.5
						c4.9-19.9,7.4-40.6,7.2-61.3c-0.2-18.6-2.4-37.1-2.4-55.7c0-3.7,0.2-7.5,0.7-11.2c4.8,1.1,9.2,2.4,13.5,3.9
						c14.9,5.3,26.8,12.9,36,23.6C412.2,345.3,416.5,359.4,417.8,373.1z"/>
					<path class="st1" d="M230.5,412c-1,2.8-2.1,5.2-3,7.2c-13.5,29.8-36.6,54.3-63.9,65.3c-1,0.4-2,0.8-3,1.1
						c-1,0.4-2.1,0.7-3.1,1.1c-3.1,1-6.3,1.8-9.5,2.4c9.6-22.9,16.1-47.6,19.1-72.8c1.4-11.8,2.1-23.7,2-35.5
						c-0.2-20.9-2.7-41.7-2.6-62.6c0.1-3.2,0.1-6.5,0.4-9.7c4.7-1,9.9-1.8,15.8-2.6c12.3-1.4,27.5-2.4,46.7-3.3
						c3.2-0.2,6.5-0.3,10-0.5c1.4,3.3,2.4,6.9,3,10.6C248.7,349.3,238.5,390.6,230.5,412z"/>
					<path class="st0" d="M171.3,408.1c-1.3,2.8-2.7,5.6-4.2,8.3c-14.8,27.5-39.1,48.5-66.7,54c12.6-29.9,19-63.3,18.8-96.5
						c-0.1-9.1-0.7-18.1-1.3-27.2c1.6-4.6,3.7-8.8,6.5-12.3c11.5-14.2,22.2-21.6,42.4-25.9c4.7-1,9.9-1.8,15.8-2.6
						c0.7,2.4,1.3,4.8,1.8,7.2C190.8,350,178.4,392.1,171.3,408.1z"/>
					<path class="st0" d="M353.6,423.9c-1.8,3.9-3.6,7.6-5.7,11.3c-16.7,29.9-43.5,52.6-73.8,58.7c0.2-0.4,0.4-0.8,0.5-1.3
						c0.1-0.1,0.2-0.3,0.2-0.4c5.4-13.1,20.5-87.7,20.3-106.6c-0.2-20.9-2.7-41.7-2.6-62.6c0.1-7.4,0.5-15.2,2.6-22.2
						c4.9,0.1,9.5,0.2,14.1,0.4h0.1c16.5,0.8,31.2,2.5,44,5.7c4.8,1.1,9.2,2.4,13.5,3.9c0.7,2.1,1.2,4.3,1.6,6.6
						C375.5,358.8,361.7,406,353.6,423.9z"/>
					<path class="st0" d="M295.9,430c-1.9,4.1-6.2,12.1-6.2,12.1c0.1,0.1,0.1,0.1,0,0.1c-11.7,21-27.8,38.8-46.6,50.7
						c-0.1,0.1-0.2,0.2-0.4,0.2C232,500,220.2,505,208,507.4c0.2-0.4,0.4-0.9,0.5-1.3c12.2-29.5,19.7-61.5,22-94.1
						c0.6-8.1,0.8-16.2,0.8-24.4c-0.2-23.1-3-46.1-2.8-69.3c0-5.1,0.2-10.5,1-15.7c3.2-0.2,6.5-0.3,10-0.5c6.3-0.2,13-0.5,20.1-0.8
						c12.7-0.5,24.6-0.7,35.7-0.5c4.9,0.1,9.5,0.2,14.1,0.4h0.1c1.3,3.4,2.3,7.1,3,11C320.2,357.9,304.9,410.2,295.9,430z"/>
				</g>
				<g>
					<path class="st0" d="M268.7,134l31.4,210.9c0.8,5.3-2.5,10.4-7.7,11.9l-0.2,0c-22.5,6.1-46.2,6.1-68.6,0l0,0
						c-5.3-1.4-8.6-6.6-7.7-12L251,134C252.6,123.9,267.1,123.9,268.7,134z"/>
					<path class="st1" d="M223.6,356.7c9.3,2.5,18.8,4,28.3,4.4l44.1-44.1l-6.4-43.3l-73.7,73.7
						C216.2,351.8,219.2,355.6,223.6,356.7z"/>
					<path class="st1" d="M268.7,134c-1.7-10-16.1-10-17.7,0l-5.8,35l25.1-25.1L268.7,134z"/>
					<polygon class="st1" points="225.3,288.3 283.1,230.5 276.6,187.2 235.2,228.7 					"/>
				</g>
			</g>
		</g>
	</g>
</g>
</svg>
