<?xml version="1.0" encoding="utf-8"?>
<!-- Generator: Adobe Illustrator 21.0.0, SVG Export Plug-In . SVG Version: 6.00 Build 0)  -->
<svg version="1.1" id="Layer_1" xmlns="http://www.w3.org/2000/svg" xmlns:xlink="http://www.w3.org/1999/xlink" x="0px" y="0px"
	 viewBox="0 0 685.6 1228.9" style="enable-background:new 0 0 685.6 1228.9;" xml:space="preserve">
<style type="text/css">
	.st0{fill:#FFFFFF;stroke:#000000;stroke-linecap:round;stroke-linejoin:round;stroke-miterlimit:10;}
	.st1{fill:#FFFFFF;stroke:#000000;stroke-miterlimit:10;}
	.st2{fill-rule:evenodd;clip-rule:evenodd;fill:#FFFFFF;stroke:#000000;stroke-miterlimit:10;}
	.st3{fill:#FFFFFF;}
</style>
<g>
	<g>
		<g>
			<path class="st0" d="M248.9,793c-20.2-65.4,3.8-138-14.4-204c-13-47-48-87.3-92.7-106.8s-98.1-17.5-141.3,5
				c47.8,23.9,78.3,78.6,73.6,131.8c-4.1,46.1-31.5,87.3-38.3,133c-9.5,63.8,24.2,129.6,76.6,167.2c52.4,37.6,120.4,49.4,184.4,41.7
				c42.2-5.1,115.1-18,143.9-49.4c-16.7-21.4-82.7-13.8-111-27.8C292.5,865.3,261.3,833.2,248.9,793z"/>
			<path class="st0" d="M176.5,797.7c-9.5-13.6-14.2-30-17.7-46.2c-10.2-46.7-12.6-95.2-6.9-142.7c4.7-39.4,14.4-81.9-4-117
				c-1.7-3.3-3.7-6.4-5.8-9.4c19,8.3,36.2,20.4,50.7,35.2c4.6,20,4.8,41.6,3.4,62.2c-2.3,35.2-8.3,70.9-1,105.3
				c6.8,32.3,24.6,60,48.1,83.2c1.3,8.3,3.1,16.6,5.7,24.8c9.4,30.5,29.6,56.3,55.1,75c-31.8-8.1-62.5-21-90.4-38.3
				C199.5,821.2,185.9,811.2,176.5,797.7z"/>
			<path class="st0" d="M217.8,931.7c48.7,15.2,100.2,18.2,151.4,15.7c-25.8,7-52.5,11.2-72.4,13.6c-64,7.7-132-4-184.4-41.7
				C60,881.7,26.3,815.9,35.8,752.1c2.4-15.8,7.2-31,12.6-46c4.7,34.5,8.5,69.4,21.8,101.4C95.8,868.7,154.4,911.9,217.8,931.7z"/>
			<path class="st0" d="M0.5,487.2c13.4-7,27.7-11.9,42.4-14.9c16,7.3,30.1,19.5,40,34.2c17.5,25.8,23.5,57.8,24.4,89
				c0.9,31.2-2.9,62.3-3.3,93.5c-0.5,44.3,6.4,90.1,29.7,127.7c31.1,50.2,88,80.1,145.9,91.6c52.6,10.5,106.8,7.8,160.4,3.8
				c-15.3,16.2-42.5,27.5-70.9,35.2c-51.2,2.5-102.7-0.4-151.4-15.7c-63.4-19.8-122-63-147.5-124.3c-13.3-31.9-17.1-66.8-21.8-101.4
				c10.4-28.7,23.1-56.8,25.7-87C78.8,565.8,48.3,511.2,0.5,487.2z"/>
			<path class="st1" d="M279.6,908.3c-57.9-11.6-114.8-41.4-145.9-91.6c-23.3-37.7-30.3-83.4-29.7-127.7c0.4-31.2,4.2-62.3,3.3-93.5
				c-0.9-31.2-7-63.2-24.4-89c-9.9-14.6-24-26.9-40-34.2c33-6.7,68-3.5,98.9,10c0.1,0,0.2,0.1,0.2,0.1c2.1,3,4,6.1,5.8,9.4
				c18.5,35.1,8.8,77.6,4,117c-5.7,47.5-3.3,96,6.9,142.7c3.6,16.2,8.2,32.6,17.7,46.2c9.4,13.5,23.1,23.5,37.1,32.1
				c28,17.2,58.6,30.1,90.4,38.3c8.1,6,16.7,11.2,25.7,15.7c28.3,14,94.3,6.4,111,27.8c-0.2,0.2-0.4,0.4-0.6,0.6
				C386.4,916.1,332.3,918.8,279.6,908.3z"/>
		</g>
		<g>
			<g>
				<g>
					<g>
						<g>
							<path class="st0" d="M278,837.9c4.8,109.1,9.2,349.7,14.2,364.7c11.4,34.2,102,33.1,124.5,5c6-7.5,0.2-244.3,8.8-348.4"/>
							<path class="st0" d="M419.5,1160.2c-0.4,27.3-1.2,45.3-2.8,47.3c-22.5,28.1-113.1,29.2-124.5-5c-1.1-3.2-2.1-17.1-3.2-38
								C332.2,1171.3,376.8,1169.8,419.5,1160.2z"/>
						</g>
						<g>
							<path class="st0" d="M629.8,837.9c-4.8,109.1-9.2,349.7-14.2,364.7c-11.4,34.2-102,33.1-124.5,5c-6-7.5-0.2-244.3-8.8-348.4"
								/>
							<path class="st0" d="M488.3,1160.2c0.4,27.3,1.2,45.3,2.8,47.3c22.5,28.1,113.1,29.2,124.5-5c1.1-3.2,2.1-17.1,3.2-38
								C575.6,1171.3,531,1169.8,488.3,1160.2z"/>
						</g>
					</g>
				</g>
				<path class="st0" d="M273.6,576.2c-13.3,63.6-26.6,127.3-40,190.9c-11.6,55.2-22.7,114.7-0.1,166.4
					c19.9,45.5,63.7,77.2,110.9,92.6c47.2,15.3,97.8,16.1,147.4,13.9c52.5-2.4,109.8-10.4,145.4-49c41.5-45,38.3-114.3,30.6-175
					c-11-86.1-26.1-171.7-45.3-256.3L273.6,576.2z"/>
				<g>
					<circle class="st1" cx="406.3" cy="598.2" r="7.8"/>
					<circle class="st1" cx="496.4" cy="598.2" r="7.8"/>
				</g>
			</g>
			<g>
				<g>
					<g>
						<path class="st0" d="M629.5,288.4c23-26.7,35.6-61.1,35.3-95.4c-0.2-21.9-5.8-43.7-15.9-63.4c-8.3-16.2-32.2-17.9-43-3.1
							c-25.9,35.6-48.4,73.2-67.4,112.4L629.5,288.4z"/>
						<path class="st0" d="M569.8,238.9c10.6-19.8,22.2-39.2,34.5-58.1c6.7-10.3,22.5-6.6,24.3,5.6c0.7,5.2,1.1,10.4,1.2,15.6
							c0.2,20.9-5.2,42.2-15.4,61.1L569.8,238.9z"/>
						<path class="st0" d="M267.6,288.4c-23-26.7-35.6-61.1-35.3-95.4c0.2-21.9,5.8-43.7,15.9-63.4c8.3-16.2,32.2-17.9,43-3.1
							c27.3,37.5,49.1,74.6,67.4,112.4L267.6,288.4z"/>
						<path class="st0" d="M278.9,263.1c-10.2-18.9-15.6-40.2-15.4-61.1c0.1-5.2,0.5-10.4,1.2-15.7c1.7-12.2,17.6-15.8,24.4-5.5
							c12.3,18.9,23.8,38.2,34.4,58L278.9,263.1z"/>
					</g>
					<path class="st0" d="M211.6,454.9c35.3-225.2,105.2-280.1,235-280.1s191.9,50.9,235,280.1c26.4,140.5-105.2,221.3-235,221.3
						S189.5,596.1,211.6,454.9z"/>
					<g>
						<path class="st2" d="M630.4,505.1c0.2,10-12.7,18.3-28.7,18.6c-16.1,0.3-29.2-7.6-29.4-17.6c-0.2-10,12.7-18.4,28.7-18.6
							C617,487.2,630.2,495.1,630.4,505.1z"/>
						<g>
							<path class="st3" d="M581.9,440c-20.7,11.7-33.3,21.2-44.2,33.8c17.5,0.9,35,3.5,52,7.6"/>
							<g>
								<path d="M581.1,438.7c-16.4,9.4-32,19.8-44.5,34.1c-0.9,1-0.3,2.5,1.1,2.6c17.4,1,34.7,3.5,51.6,7.5
									c1.9,0.4,2.7-2.4,0.8-2.9c-17.2-4.1-34.7-6.7-52.4-7.6c0.4,0.9,0.7,1.7,1.1,2.6c12.3-14.1,27.7-24.4,43.9-33.6
									C584.3,440.3,582.8,437.7,581.1,438.7L581.1,438.7z"/>
							</g>
						</g>
						<path class="st2" d="M268.7,505.1c-0.2,10,12.7,18.3,28.7,18.6c16.1,0.3,29.2-7.6,29.4-17.6c0.2-10-12.7-18.4-28.7-18.6
							C282.1,487.2,268.9,495.1,268.7,505.1z"/>
						<g>
							<path class="st3" d="M317.2,440c20.7,11.7,33.3,21.2,44.2,33.8c-17.5,0.9-35,3.5-52,7.6"/>
							<g>
								<path d="M316.4,441.3c16.2,9.2,31.6,19.5,43.9,33.6c0.4-0.9,0.7-1.7,1.1-2.6c-17.7,1-35.2,3.5-52.4,7.6
									c-1.9,0.4-1.1,3.3,0.8,2.9c17-4.1,34.2-6.6,51.6-7.5c1.3-0.1,1.9-1.6,1.1-2.6c-12.5-14.3-28.1-24.7-44.5-34.1
									C316.2,437.7,314.7,440.3,316.4,441.3L316.4,441.3z"/>
							</g>
						</g>
					</g>
					<g>
						<circle class="st1" cx="403.5" cy="593.9" r="7.8"/>
						<circle class="st1" cx="493.6" cy="593.9" r="7.8"/>
					</g>
					<g>
						<path class="st0" d="M604.3,244.3C604.3,244.3,604.3,244.3,604.3,244.3c-3.1,14.9-7.4,27.4-10.6,34.6
							c-13.4,29.8-38,53.6-66.4,60.7v0.1c-1.2,0.3-2.4,0.6-3.6,0.8c2.5-6,4.8-12.2,6.8-18.4c1.7-5.4,3.3-10.8,4.7-16.3
							c4.8-19.7,7.3-40.2,7.1-60.6c-0.2-18.4-2.4-36.7-2.3-55.1c0-3.7,0.2-7.5,0.7-11.1c4.7,1.1,9.1,2.3,13.3,3.9
							c14.7,5.2,26.5,12.8,35.6,23.3C598.7,216.8,603,230.7,604.3,244.3z"/>
						<path class="st1" d="M419.2,282.7c-1,2.7-2,5.1-2.9,7.2c-13.3,29.5-36.2,53.7-63.2,64.6c-1,0.4-2,0.8-3,1.1
							c-1,0.4-2,0.7-3,1.1c-3.1,1-6.2,1.7-9.4,2.4c9.5-22.6,15.9-47,18.9-72c1.4-11.6,2.1-23.4,2-35.1c-0.2-20.6-2.6-41.2-2.6-61.9
							c0.1-3.2,0.1-6.4,0.4-9.6c4.7-1,9.8-1.8,15.6-2.6c12.2-1.4,27.2-2.4,46.1-3.3c3.2-0.2,6.4-0.3,9.8-0.5c1.4,3.3,2.3,6.8,3,10.5
							C437.1,220.8,427.1,261.5,419.2,282.7z"/>
						<path class="st0" d="M360.6,278.8c-1.3,2.8-2.6,5.5-4.1,8.2c-14.6,27.2-38.6,48-65.9,53.4c12.4-29.6,18.8-62.5,18.6-95.4
							c-0.1-9-0.7-17.9-1.3-26.9c1.6-4.5,3.7-8.7,6.4-12.1c11.3-14,22-21.3,41.9-25.6c4.7-1,9.8-1.8,15.6-2.6
							c0.7,2.3,1.3,4.7,1.7,7.2C379.9,221.4,367.7,263,360.6,278.8z"/>
						<path class="st0" d="M540.8,294.5c-1.7,3.8-3.6,7.5-5.7,11.2c-16.5,29.5-43,52-72.9,58c0.2-0.4,0.4-0.8,0.5-1.3
							c0.1-0.1,0.2-0.3,0.2-0.4c5.3-12.9,20.3-86.6,20.1-105.4c-0.2-20.6-2.6-41.2-2.6-61.9c0.1-7.3,0.5-15,2.6-21.9
							c4.8,0.1,9.4,0.2,14,0.4h0.1c16.4,0.8,30.9,2.5,43.5,5.6c4.7,1.1,9.1,2.3,13.3,3.9c0.7,2.1,1.2,4.3,1.6,6.6
							C562.5,230.1,548.8,276.8,540.8,294.5z"/>
						<path class="st0" d="M483.8,300.5c-1.8,4.1-6.1,11.9-6.1,11.9c0.1,0.1,0.1,0.1,0,0.1c-11.5,20.7-27.4,38.3-46,50.1
							c-0.1,0.1-0.2,0.2-0.4,0.2c-10.7,6.9-22.4,11.8-34.5,14.1c0.2-0.4,0.4-0.9,0.5-1.3c12.1-29.2,19.5-60.8,21.7-93
							c0.6-8,0.8-16.1,0.8-24.1c-0.2-22.9-2.9-45.6-2.8-68.4c0-5.1,0.2-10.4,1-15.5c3.2-0.2,6.4-0.3,9.8-0.5
							c6.2-0.2,12.8-0.5,19.9-0.8c12.5-0.5,24.3-0.7,35.3-0.5c4.8,0.1,9.4,0.2,14,0.4h0.1c1.3,3.4,2.3,7,2.9,10.9
							C507.8,229.3,492.7,280.9,483.8,300.5z"/>
					</g>
					<g>
						<path class="st0" d="M456.9,7.9l31,208.4c0.8,5.3-2.5,10.3-7.6,11.7l-0.2,0c-22.2,6.1-45.6,6.1-67.8,0l0,0
							c-5.2-1.4-8.5-6.6-7.6-11.9L439.4,7.9C441-2,455.3-2,456.9,7.9z"/>
						<path class="st1" d="M412.3,228.1c9.2,2.5,18.5,3.9,27.9,4.3l43.6-43.6l-6.4-42.8l-72.8,72.8C405,223.2,408,226.9,412.3,228.1
							z"/>
						<path class="st1" d="M456.9,7.9C455.3-2,441-2,439.4,7.9l-5.8,34.6l24.8-24.8L456.9,7.9z"/>
						<polygon class="st1" points="414,160.5 471.1,103.3 464.8,60.6 423.8,101.5 						"/>
					</g>
				</g>
				<g>
					<path class="st0" d="M242.5,774.6c59.1-91.9,28.2-45.9,87.4-137.8c8.8-11.6,20.4-18.4,32.1-22.3c34.2-11.2,71.8,9.4,77.1,45
						c1.4,9.4,0.6,19.8-3.9,30.7c-51.2,91.1-26.1,44.6-84.4,153.8"/>
					<path class="st0" d="M435.1,690.2c4.5-10.8,5.3-21.2,3.9-30.7c-5.3-35.7-42.8-56.3-77.1-45c-11.7,3.9-23.3,10.6-32.1,22.3
						c-2.4,3.8-4.9,7.7-7.4,11.5c30.7,25.3,64.7,46.5,100.8,63.1C427.2,704.2,431.1,697.2,435.1,690.2z"/>
				</g>
				<g>
					<path class="st0" d="M656.2,757.7c-70.8-83.2-34.1-41.8-104.9-124.9c-10.2-10.4-22.6-15.5-34.7-17.8
						c-35.4-6.6-69.9,18.8-70.4,54.9c-0.1,9.5,2,19.7,8,29.9c62.9,83.5,31.8,40.8,104.1,141.2"/>
					<path class="st0" d="M454.1,699.7c-5.9-10.1-8.1-20.3-8-29.9c0.5-36,35-61.5,70.4-54.9c12.1,2.3,24.5,7.4,34.8,17.8
						c2.9,3.5,5.9,6.9,8.8,10.4c-27.1,29.1-57.9,54.7-91.5,75.9C463.8,712.6,459,706.2,454.1,699.7z"/>
				</g>
			</g>
		</g>
	</g>
</g>
</svg>
